<?xml version="1.0" encoding="UTF-8"?>
<svg viewBox="0 0 793.7 1122.5" xmlns="http://www.w3.org/2000/svg">
 <g fill="#231f20">
  <path d="m467.85 344.25c17.784 0 32.207-14.471 32.207-32.255s-14.422-32.207-32.207-32.207c-17.833 0-32.255 14.422-32.255 32.207 0 17.784 14.422 32.255 32.255 32.255"/>
  <path d="m356.85 368.17l-50.137 57.933c-2.972 3.654-7.455 5.896-12.522 5.896-8.965 0-16.225-7.26-16.225-16.177 0-4.872 2.095-9.209 5.457-12.181l54.084-62.269c2.972-3.557 7.455-5.847 12.522-5.847l78.251-0.049c5.75 0 10.914 2.339 14.715 5.993l49.893 49.894 41.367-41.27c2.924-2.485 6.676-3.947 10.768-3.947 9.258 0 16.713 7.504 16.713 16.762 0 4.044-1.365 7.698-3.752 10.622l-49.845 50.234c-15.153 15.105-27.334 2.29-27.334 2.29l-30.599-30.745-47.798 55.302 43.803 43.803s9.257 8.576 3.946 25.629l-24.557 109.48c-1.949 9.502-10.329 16.664-20.366 16.664-11.548 0-20.854-9.355-20.854-20.854 0-1.851 0.19501-3.605 0.633-5.262l20.221-89.799-49.797-48.383-42.828 47.75s-6.919 8.527-25.288 7.893l-86.875 0.146c-9.696 0.14703-18.515-6.48-20.659-16.322-2.583-11.207 4.336-22.219 15.591-24.703 1.755-0.38998 3.509-0.53601 5.214-0.48801l74.694 0.195 110.46-128.05-28.894-0.146z"/>
 </g>
</svg>
