<?xml version="1.0" encoding="iso-8859-1"?>
<!-- Uploaded to: SVG Repo, www.svgrepo.com, Generator: SVG Repo Mixer Tools -->
<!DOCTYPE svg PUBLIC "-//W3C//DTD SVG 1.1//EN" "http://www.w3.org/Graphics/SVG/1.1/DTD/svg11.dtd">
<svg fill="#000000" height="800px" width="800px" version="1.1" id="Capa_1" xmlns="http://www.w3.org/2000/svg" xmlns:xlink="http://www.w3.org/1999/xlink" 
	 viewBox="0 0 396.501 396.501" xml:space="preserve">
<path id="XMLID_44_" d="M199.935,308.472c0,4.418-3.582,8-8,8c-63.417,0-115.009-51.593-115.009-115.01c0-4.418,3.582-8,8-8
	s8,3.582,8,8c0,54.594,44.416,99.01,99.009,99.01C196.353,300.472,199.935,304.054,199.935,308.472z M87.886,91.597
	c4.418,0,8-3.582,8-8v-2.051c0-4.418-3.582-8-8-8s-8,3.582-8,8v2.051C79.886,88.015,83.467,91.597,87.886,91.597z M379.764,113.101
	v90.66c0,77.269-61.182,140.517-137.643,143.851l0.001,40.887c0,2.121-0.843,4.156-2.343,5.657c-1.5,1.5-3.535,2.343-5.657,2.343
	h-17.179c-4.418,0-8-3.582-8-8s3.582-8,8-8h9.179l-0.001-32.749h-34.819v40.752c0,2.122-0.843,4.157-2.344,5.657
	c-1.5,1.5-3.535,2.343-5.656,2.343H183.3l-17.178-0.003c-4.418-0.001-8-3.583-7.999-8.001s3.582-7.999,8-7.999c0,0,0.001,0,0.001,0
	l9.177,0.002v-33.542c-72.306-7.59-128.844-68.914-128.844-143.197v-72.464H24.737c-3.209,0-6.107-1.917-7.362-4.871
	c-1.255-2.953-0.625-6.37,1.603-8.681l27.48-28.51V78.387c0-20.278,14.203-37.301,33.186-41.641
	c-0.028-0.573-0.042-1.149-0.042-1.726C79.602,15.71,95.313,0,114.625,0c18.94,0,34.417,15.112,35.003,33.913
	c12.955,5.271,21.777,17.957,21.777,32.438c0,5.767-1.425,11.407-4.096,16.434c5.405,6.276,8.402,14.264,8.402,22.783
	c0,18.578-14.54,33.824-32.838,34.955c14.618,23.436,40.564,38.603,69.583,38.603h69.303c11.212,0,21.967-2.265,31.786-6.396
	c1.423-0.599,5.892-2.373,11.534-5.971c18.995-12.113,33.119-31.554,37.38-55.083c0.689-3.807,4.003-6.574,7.872-6.574h1.432
	C376.182,105.101,379.764,108.683,379.764,113.101z M176.756,188.332c5.293,29.941,31.501,52.759,62.938,52.759h10.618
	c30.807,0,56.657-21.993,62.618-51.103c-9.986,3.374-20.513,5.137-31.17,5.137h-69.303
	C200.174,195.125,188.064,192.784,176.756,188.332z M95.602,35.021c0,0.382,0.011,0.763,0.034,1.143
	c20.497,3.124,36.249,20.868,36.249,42.224v33.979c0.738,3.887,1.742,7.668,2.992,11.322c1.862,0.599,3.808,0.901,5.813,0.901
	c10.489,0,19.023-8.533,19.023-19.022c0-6.042-2.778-11.593-7.621-15.229c-1.769-1.328-2.909-3.33-3.149-5.528
	c-0.24-2.199,0.441-4.4,1.881-6.079c2.955-3.443,4.582-7.84,4.582-12.381c0-9.209-6.561-17.08-15.599-18.716
	c-4.336-0.785-7.222-4.93-6.452-9.269c0.193-1.09,0.291-2.215,0.291-3.346c0-10.488-8.533-19.021-19.021-19.021
	C104.135,16,95.602,24.532,95.602,35.021z M363.764,150.615c-5.191,7.925-11.539,15.13-18.882,21.338
	c-4.639,3.922-9.604,7.381-14.822,10.351c-2.658,41.66-37.47,74.787-79.748,74.787h-10.618c-43.224,0-78.543-34.496-79.873-77.404
	c-3.646-2.332-7.151-4.913-10.487-7.733c-12.505-10.572-22.125-24.04-28.059-39.019c-0.075-0.174-0.145-0.351-0.208-0.529
	c-2.245-5.765-3.945-11.751-5.055-17.879c-0.085-0.471-0.128-0.947-0.128-1.426V78.387c0-14.696-11.93-26.659-26.616-26.712
	c-0.143,0.005-0.288,0.007-0.43,0.002c-14.576,0.18-26.38,12.093-26.38,26.71v14.076c0,2.071-0.803,4.061-2.24,5.552L43.56,115.297
	h10.898c4.418,0,8,3.582,8,8v80.464c0,70.573,57.415,127.988,127.988,127.988h45.33c70.573,0,127.988-57.415,127.988-127.988
	V150.615z"/>
</svg>